HIERARCHY
ROOT Hips
{
	OFFSET -49.260769 -43.699543 87.056984
	CHANNELS 6 Xposition Yposition Zposition Zrotation Yrotation Xrotation
	JOINT Spine
	{
		OFFSET 0.000000 2.080109 8.814247
		CHANNELS 6 Xposition Yposition Zposition Zrotation Yrotation Xrotation
		JOINT Spine1
		{
			OFFSET 0.000000 0.000000 8.844139
			CHANNELS 6 Xposition Yposition Zposition Zrotation Yrotation Xrotation
			JOINT Spine2
			{
				OFFSET 0.000000 0.000000 11.682266
				CHANNELS 6 Xposition Yposition Zposition Zrotation Yrotation Xrotation
				JOINT Spine3
				{
					OFFSET 0.000000 0.000004 11.746696
					CHANNELS 6 Xposition Yposition Zposition Zrotation Yrotation Xrotation
					JOINT Neck
					{
						OFFSET 0.000000 0.000000 17.658264
						CHANNELS 6 Xposition Yposition Zposition Zrotation Yrotation Xrotation
						JOINT Neck1
						{
							OFFSET 0.000000 0.000000 5.101517
							CHANNELS 6 Xposition Yposition Zposition Zrotation Yrotation Xrotation
							JOINT Head
							{
								OFFSET 0.000000 0.000000 5.101517
								CHANNELS 6 Xposition Yposition Zposition Zrotation Yrotation Xrotation
								JOINT HeadEnd
								{
									OFFSET 0.000000 0.000000 11.655090
									CHANNELS 6 Xposition Yposition Zposition Zrotation Yrotation Xrotation
									End Site
									{
										OFFSET 0.000000 0.000000 0.100006
									}
								}
							}
						}
					}
					JOINT RightShoulder
					{
						OFFSET -2.625389 0.000000 11.175217
						CHANNELS 6 Xposition Yposition Zposition Zrotation Yrotation Xrotation
						JOINT RightArm
						{
							OFFSET 0.000000 0.000000 10.434723
							CHANNELS 6 Xposition Yposition Zposition Zrotation Yrotation Xrotation
							JOINT RightForeArm
							{
								OFFSET 0.000000 0.000004 29.628418
								CHANNELS 6 Xposition Yposition Zposition Zrotation Yrotation Xrotation
								JOINT RightHand
								{
									OFFSET 0.000000 0.000000 22.857605
									CHANNELS 6 Xposition Yposition Zposition Zrotation Yrotation Xrotation
									JOINT RightHandThumb1
									{
										OFFSET -2.867321 -2.944290 3.959564
										CHANNELS 6 Xposition Yposition Zposition Zrotation Yrotation Xrotation
										JOINT RightHandThumb2
										{
											OFFSET 0.000000 0.000000 3.350403
											CHANNELS 6 Xposition Yposition Zposition Zrotation Yrotation Xrotation
											JOINT RightHandThumb3
											{
												OFFSET 0.000000 0.000000 3.756516
												CHANNELS 6 Xposition Yposition Zposition Zrotation Yrotation Xrotation
												JOINT RightHandThumb4
												{
													OFFSET 0.000000 0.000000 3.147339
													CHANNELS 6 Xposition Yposition Zposition Zrotation Yrotation Xrotation
													End Site
													{
														OFFSET 0.000000 0.000000 0.100006
													}
												}
											}
										}
									}
									JOINT RightHandIndex1
									{
										OFFSET -0.086754 -2.345280 10.030899
										CHANNELS 6 Xposition Yposition Zposition Zrotation Yrotation Xrotation
										JOINT RightHandIndex2
										{
											OFFSET 0.000000 0.000000 4.061096
											CHANNELS 6 Xposition Yposition Zposition Zrotation Yrotation Xrotation
											JOINT RightHandIndex3
											{
												OFFSET 0.000000 0.000000 3.248871
												CHANNELS 6 Xposition Yposition Zposition Zrotation Yrotation Xrotation
												JOINT RightHandIndex4
												{
													OFFSET 0.000000 0.000000 2.639709
													CHANNELS 6 Xposition Yposition Zposition Zrotation Yrotation Xrotation
													End Site
													{
														OFFSET 0.000000 0.000000 0.100006
													}
												}
											}
										}
									}
									JOINT RightHandMiddle1
									{
										OFFSET 0.104103 -0.006767 9.502945
										CHANNELS 6 Xposition Yposition Zposition Zrotation Yrotation Xrotation
										JOINT RightHandMiddle2
										{
											OFFSET 0.000000 0.000000 4.568726
											CHANNELS 6 Xposition Yposition Zposition Zrotation Yrotation Xrotation
											JOINT RightHandMiddle3
											{
												OFFSET 0.000000 0.000000 3.654984
												CHANNELS 6 Xposition Yposition Zposition Zrotation Yrotation Xrotation
												JOINT RightHandMiddle4
												{
													OFFSET 0.000000 0.000000 2.741241
													CHANNELS 6 Xposition Yposition Zposition Zrotation Yrotation Xrotation
													End Site
													{
														OFFSET 0.000000 0.000000 0.100006
													}
												}
											}
										}
									}
									JOINT RightHandRing1
									{
										OFFSET 0.086754 2.267441 8.921707
										CHANNELS 6 Xposition Yposition Zposition Zrotation Yrotation Xrotation
										JOINT RightHandRing2
										{
											OFFSET 0.000000 0.000000 4.061096
											CHANNELS 6 Xposition Yposition Zposition Zrotation Yrotation Xrotation
											JOINT RightHandRing3
											{
												OFFSET 0.000000 0.000000 3.654984
												CHANNELS 6 Xposition Yposition Zposition Zrotation Yrotation Xrotation
												JOINT RightHandRing4
												{
													OFFSET 0.000000 0.000000 2.741241
													CHANNELS 6 Xposition Yposition Zposition Zrotation Yrotation Xrotation
													End Site
													{
														OFFSET 0.000000 0.000000 0.100006
													}
												}
											}
										}
									}
									JOINT RightHandPinky1
									{
										OFFSET -0.173504 4.467197 7.976990
										CHANNELS 6 Xposition Yposition Zposition Zrotation Yrotation Xrotation
										JOINT RightHandPinky2
										{
											OFFSET 0.000000 0.000000 3.350403
											CHANNELS 6 Xposition Yposition Zposition Zrotation Yrotation Xrotation
											JOINT RightHandPinky3
											{
												OFFSET 0.000000 0.000000 2.842758
												CHANNELS 6 Xposition Yposition Zposition Zrotation Yrotation Xrotation
												JOINT RightHandPinky4
												{
													OFFSET 0.000000 0.000000 2.639709
													CHANNELS 6 Xposition Yposition Zposition Zrotation Yrotation Xrotation
													End Site
													{
														OFFSET 0.000000 0.000000 0.100006
													}
												}
											}
										}
									}
									JOINT RightForeArmEnd
									{
										OFFSET 0.000000 0.000000 0.000000
										CHANNELS 6 Xposition Yposition Zposition Zrotation Yrotation Xrotation
										End Site
										{
											OFFSET 0.000000 0.000000 0.100006
										}
									}
								}
								JOINT RightArmEnd
								{
									OFFSET 0.000000 0.000000 0.000000
									CHANNELS 6 Xposition Yposition Zposition Zrotation Yrotation Xrotation
									End Site
									{
										OFFSET 0.000000 0.000000 0.100006
									}
								}
							}
						}
					}
					JOINT LeftShoulder
					{
						OFFSET 2.625389 0.000000 11.175217
						CHANNELS 6 Xposition Yposition Zposition Zrotation Yrotation Xrotation
						JOINT LeftArm
						{
							OFFSET 0.000000 0.000000 10.813629
							CHANNELS 6 Xposition Yposition Zposition Zrotation Yrotation Xrotation
							JOINT LeftForeArm
							{
								OFFSET 0.000000 0.000004 28.724777
								CHANNELS 6 Xposition Yposition Zposition Zrotation Yrotation Xrotation
								JOINT LeftHand
								{
									OFFSET 0.644382 0.328873 25.716171
									CHANNELS 6 Xposition Yposition Zposition Zrotation Yrotation Xrotation
									JOINT LeftHandThumb1
									{
										OFFSET 2.867325 -2.944290 3.959564
										CHANNELS 6 Xposition Yposition Zposition Zrotation Yrotation Xrotation
										JOINT LeftHandThumb2
										{
											OFFSET 0.000000 0.000000 3.350403
											CHANNELS 6 Xposition Yposition Zposition Zrotation Yrotation Xrotation
											JOINT LeftHandThumb3
											{
												OFFSET 0.000000 0.000000 3.756516
												CHANNELS 6 Xposition Yposition Zposition Zrotation Yrotation Xrotation
												JOINT LeftHandThumb4
												{
													OFFSET 0.000000 0.000000 3.100006
													CHANNELS 6 Xposition Yposition Zposition Zrotation Yrotation Xrotation
													End Site
													{
														OFFSET 0.000000 0.000000 0.100006
													}
												}
											}
										}
									}
									JOINT LeftHandIndex1
									{
										OFFSET 0.086754 -2.345280 10.030899
										CHANNELS 6 Xposition Yposition Zposition Zrotation Yrotation Xrotation
										JOINT LeftHandIndex2
										{
											OFFSET 0.000000 0.000000 4.061096
											CHANNELS 6 Xposition Yposition Zposition Zrotation Yrotation Xrotation
											JOINT LeftHandIndex3
											{
												OFFSET 0.000000 0.000000 3.248871
												CHANNELS 6 Xposition Yposition Zposition Zrotation Yrotation Xrotation
												JOINT LeftHandIndex4
												{
													OFFSET 0.000000 0.000000 2.639709
													CHANNELS 6 Xposition Yposition Zposition Zrotation Yrotation Xrotation
													End Site
													{
														OFFSET 0.000000 0.000000 0.100006
													}
												}
											}
										}
									}
									JOINT LeftHandMiddle1
									{
										OFFSET -0.104103 -0.006767 9.502945
										CHANNELS 6 Xposition Yposition Zposition Zrotation Yrotation Xrotation
										JOINT LeftHandMiddle2
										{
											OFFSET 0.000000 0.000000 4.568726
											CHANNELS 6 Xposition Yposition Zposition Zrotation Yrotation Xrotation
											JOINT LeftHandMiddle3
											{
												OFFSET 0.000000 0.000000 3.654984
												CHANNELS 6 Xposition Yposition Zposition Zrotation Yrotation Xrotation
												JOINT LeftHandMiddle4
												{
													OFFSET 0.000000 0.000000 2.741241
													CHANNELS 6 Xposition Yposition Zposition Zrotation Yrotation Xrotation
													End Site
													{
														OFFSET 0.000000 0.000000 0.100006
													}
												}
											}
										}
									}
									JOINT LeftHandRing1
									{
										OFFSET -0.086754 2.267441 8.921707
										CHANNELS 6 Xposition Yposition Zposition Zrotation Yrotation Xrotation
										JOINT LeftHandRing2
										{
											OFFSET 0.000000 0.000000 4.061096
											CHANNELS 6 Xposition Yposition Zposition Zrotation Yrotation Xrotation
											JOINT LeftHandRing3
											{
												OFFSET 0.000000 0.000000 3.654984
												CHANNELS 6 Xposition Yposition Zposition Zrotation Yrotation Xrotation
												JOINT LeftHandRing4
												{
													OFFSET 0.000000 0.000000 2.741241
													CHANNELS 6 Xposition Yposition Zposition Zrotation Yrotation Xrotation
													End Site
													{
														OFFSET 0.000000 0.000000 0.100006
													}
												}
											}
										}
									}
									JOINT LeftHandPinky1
									{
										OFFSET 0.173504 4.467197 7.976990
										CHANNELS 6 Xposition Yposition Zposition Zrotation Yrotation Xrotation
										JOINT LeftHandPinky2
										{
											OFFSET 0.000000 0.000000 3.350403
											CHANNELS 6 Xposition Yposition Zposition Zrotation Yrotation Xrotation
											JOINT LeftHandPinky3
											{
												OFFSET 0.000000 0.000000 2.842758
												CHANNELS 6 Xposition Yposition Zposition Zrotation Yrotation Xrotation
												JOINT LeftHandPinky4
												{
													OFFSET 0.000000 0.000000 2.639709
													CHANNELS 6 Xposition Yposition Zposition Zrotation Yrotation Xrotation
													End Site
													{
														OFFSET 0.000000 0.000000 0.100006
													}
												}
											}
										}
									}
									JOINT LeftForeArmEnd
									{
										OFFSET 0.000000 0.000000 0.000000
										CHANNELS 6 Xposition Yposition Zposition Zrotation Yrotation Xrotation
										End Site
										{
											OFFSET 0.000000 0.000000 0.100006
										}
									}
								}
								JOINT LeftArmEnd
								{
									OFFSET 0.000000 0.000000 0.000000
									CHANNELS 6 Xposition Yposition Zposition Zrotation Yrotation Xrotation
									End Site
									{
										OFFSET 0.000000 0.000000 0.100006
									}
								}
							}
						}
					}
				}
			}
		}
	}
	JOINT RightUpLeg
	{
		OFFSET -11.289944 0.000000 0.000000
		CHANNELS 6 Xposition Yposition Zposition Zrotation Yrotation Xrotation
		JOINT RightLeg
		{
			OFFSET 0.000000 -0.000004 -38.200321
			CHANNELS 6 Xposition Yposition Zposition Zrotation Yrotation Xrotation
			JOINT RightFoot
			{
				OFFSET 0.000000 -0.000004 -39.900856
				CHANNELS 6 Xposition Yposition Zposition Zrotation Yrotation Xrotation
				JOINT RightToeBase
				{
					OFFSET 0.000000 -15.261639 0.000002
					CHANNELS 6 Xposition Yposition Zposition Zrotation Yrotation Xrotation
					JOINT RightToeBaseEnd
					{
						OFFSET 0.000000 -7.370712 0.000000
						CHANNELS 6 Xposition Yposition Zposition Zrotation Yrotation Xrotation
						End Site
						{
							OFFSET 0.000000 0.000000 0.100000
						}
					}
				}
				JOINT RightLegEnd
				{
					OFFSET 0.000000 0.000000 0.000000
					CHANNELS 6 Xposition Yposition Zposition Zrotation Yrotation Xrotation
					End Site
					{
						OFFSET 0.000000 0.000000 0.100000
					}
				}
			}
			JOINT RightUpLegEnd
			{
				OFFSET 0.000000 0.000000 0.000000
				CHANNELS 6 Xposition Yposition Zposition Zrotation Yrotation Xrotation
				End Site
				{
					OFFSET 0.000000 0.000000 0.099998
				}
			}
		}
	}
	JOINT LeftUpLeg
	{
		OFFSET 11.315662 0.000000 0.000000
		CHANNELS 6 Xposition Yposition Zposition Zrotation Yrotation Xrotation
		JOINT LeftLeg
		{
			OFFSET 0.000000 -0.000004 -38.200321
			CHANNELS 6 Xposition Yposition Zposition Zrotation Yrotation Xrotation
			JOINT LeftFoot
			{
				OFFSET 0.000000 -0.000004 -39.900856
				CHANNELS 6 Xposition Yposition Zposition Zrotation Yrotation Xrotation
				JOINT LeftToeBase
				{
					OFFSET 0.000000 -15.261639 0.000002
					CHANNELS 6 Xposition Yposition Zposition Zrotation Yrotation Xrotation
					JOINT LeftToeBaseEnd
					{
						OFFSET 0.000000 -7.539993 0.000000
						CHANNELS 6 Xposition Yposition Zposition Zrotation Yrotation Xrotation
						End Site
						{
							OFFSET 0.000000 0.000000 0.100000
						}
					}
				}
				JOINT LeftLegEnd
				{
					OFFSET 0.000000 0.000000 0.000000
					CHANNELS 6 Xposition Yposition Zposition Zrotation Yrotation Xrotation
					End Site
					{
						OFFSET 0.000000 0.000000 0.100000
					}
				}
			}
			JOINT LeftUpLegEnd
			{
				OFFSET 0.000000 0.000000 0.000000
				CHANNELS 6 Xposition Yposition Zposition Zrotation Yrotation Xrotation
				End Site
				{
					OFFSET 0.000000 0.000000 0.099998
				}
			}
		}
	}
}
MOTION
Frames: 2
Frame Time: 0.016667
-24.211906 -47.495354 86.606125 23.363734 1.745370 -13.869795 -0.000005 2.080100 8.814261 0.277225 0.432637 7.399729 -0.000005 0.000001 8.844138 -0.268799 -0.550760 3.114543 -0.000005 -0.000002 11.682258 -1.972024 -0.473521 4.758096 0.000004 0.000009 11.746697 -0.498160 0.665826 0.554951 -0.000005 -0.000002 17.658279 -0.179831 -8.659194 21.913199 0.000001 0.000001 5.101562 1.103890 3.002484 -2.566800 -0.000004 -0.000001 5.101538 3.462842 0.645446 -26.718674 -0.000004 0.000001 11.655075 -0.000000 -0.000000 -0.000000 -2.625399 0.000004 11.175227 9.622500 -83.147834 -0.450104 -0.000003 0.000006 10.434721 38.866860 -9.581447 9.161149 -0.000018 -0.000013 29.628420 40.383907 -5.561084 83.031748 0.000000 -0.000002 22.857615 65.361099 12.667781 10.975767 -2.867313 -2.944267 3.959549 33.529665 -29.323652 34.785054 -0.000019 -0.000004 3.350405 -38.923848 8.843084 -65.314394 0.000010 -0.000002 3.756516 -26.237453 11.072416 -44.834830 0.000005 0.000010 3.147322 -0.000000 -0.000000 0.000001 -0.086753 -2.345299 10.030902 -133.483890 -64.796775 127.334793 0.000033 0.000000 4.061094 -19.169870 -72.560474 26.574352 0.000009 -0.000000 3.248862 -19.669840 -72.560446 26.567267 0.000013 -0.000007 2.639690 -0.000000 -0.000003 0.000002 0.104122 -0.006773 9.502945 -139.038650 -69.705803 137.511912 -0.000008 -0.000005 4.568717 -7.010250 -73.356669 10.076686 0.000003 0.000001 3.654969 -7.512892 -73.356648 10.081421 -0.000003 -0.000019 2.741209 0.000000 -0.000002 -0.000000 0.086771 2.267440 8.921727 -163.956710 -71.499984 165.168154 0.000046 0.000005 4.061093 9.031493 -74.875696 -13.078337 0.000024 0.000003 3.655007 10.027478 -74.875935 -13.073723 -0.000005 -0.000012 2.741209 0.000001 -0.000002 0.000000 -0.173491 4.467189 7.977006 168.533156 -73.099751 -164.308929 0.000002 0.000000 3.350414 21.703635 -70.418615 -33.123433 -0.000006 0.000013 2.842797 23.703581 -70.418581 -33.123392 0.000004 -0.000018 2.639710 0.000000 0.000001 0.000001 0.000005 -0.000002 0.000014 -0.000002 -0.000001 0.000000 -0.000000 0.000001 0.000014 -0.000000 -0.000001 0.000000 2.625394 0.000001 11.175229 -11.481566 83.167484 -1.177649 0.000001 0.000004 10.813624 -34.193061 12.108976 17.472865 -0.000013 -0.000004 28.724775 -35.777494 6.846501 91.130713 0.644384 0.328867 25.716125 -59.380565 -16.184412 3.470849 2.867334 -2.944281 3.959578 -32.486883 26.400032 38.690594 -0.000004 0.000015 3.350379 32.871184 -10.485747 -55.441762 -0.000016 0.000015 3.756494 21.866967 -10.798255 -37.858885 -0.000001 -0.000002 3.100005 0.000000 -0.000000 0.000001 0.086756 -2.345271 10.030921 30.736005 86.510937 15.939006 -0.000004 0.000005 4.061092 -8.420217 61.390184 -14.959093 0.000016 0.000001 3.248891 -8.926603 61.389645 -14.964309 0.000006 0.000008 2.639724 0.000001 0.000001 0.000001 -0.104114 -0.006763 9.502959 81.482012 83.378735 71.688983 0.000025 -0.000001 4.568728 -3.032231 62.582722 -5.805872 0.000004 0.000005 3.654989 -3.531423 62.582974 -5.801726 0.000008 0.000002 2.741241 0.000000 0.000001 0.000001 -0.086732 2.267440 8.921715 111.873875 74.404556 110.049627 0.000006 0.000006 4.061098 4.376486 66.701742 8.161956 0.000009 -0.000003 3.654969 5.382681 66.701565 8.168036 -0.000016 0.000000 2.741243 0.000001 0.000001 -0.000001 0.173520 4.467190 7.976995 102.191958 66.626200 111.018749 0.000010 0.000016 3.350413 14.239685 65.362602 25.076806 0.000019 -0.000005 2.842748 16.239652 65.362595 25.076777 0.000001 -0.000004 2.639708 -0.000001 -0.000002 -0.000001 0.000006 -0.000002 0.000031 0.000001 -0.000001 -0.000001 -0.000000 0.000000 -0.000015 -0.000003 -0.000000 -0.000000 -11.289950 -0.000013 -0.000011 -9.161191 8.879460 12.757979 0.000003 0.000001 -38.200325 -1.116689 0.326281 16.282042 0.000001 -0.000005 -39.900852 -11.859803 -4.273170 17.368247 -0.000004 -15.261632 -0.000005 -1.118817 0.860918 -28.316617 -0.000000 -7.370720 0.000001 0.000000 0.000000 -0.000000 0.000000 0.000007 -0.000000 0.000000 -0.000000 -0.000001 -0.000000 -0.000003 -0.000007 -0.000001 -0.000000 -0.000000 11.315660 -0.000019 0.000006 8.189936 -6.224077 18.358370 0.000001 -0.000008 -38.200321 0.959767 -0.211003 12.398134 0.000003 -0.000004 -39.900852 3.189037 -2.660364 9.286895 0.000000 -15.261644 0.000005 0.509634 -0.305560 -25.861229 -0.000000 -7.539988 0.000001 0.000003 -0.000000 -0.000000 0.000000 0.000003 0.000001 0.000002 -0.000001 0.000003 0.000005 -0.000005 0.000011 0.000002 0.000000 0.000001 
-24.475677 -47.659653 86.577538 23.090139 1.777328 -13.909362 -0.000005 2.080123 8.814251 0.289329 0.378014 7.346832 0.000001 0.000002 8.844144 -0.270572 -0.588855 3.056399 0.000001 -0.000000 11.682277 -1.931035 -0.495943 4.853028 0.000001 0.000008 11.746701 -0.479191 0.671744 0.605755 0.000003 -0.000007 17.658278 -0.162242 -8.566679 21.940883 0.000005 -0.000001 5.101528 1.036346 3.014950 -2.549549 0.000002 0.000007 5.101530 3.458419 0.647646 -26.752116 -0.000004 -0.000005 11.655045 0.000000 0.000001 0.000000 -2.625383 -0.000004 11.175225 9.573340 -83.262369 -0.457950 0.000009 0.000002 10.434741 38.135033 -9.466173 9.348463 -0.000002 -0.000015 29.628420 40.195209 -5.497988 83.472486 -0.000015 0.000006 22.857590 64.861601 12.590573 10.859487 -2.867301 -2.944258 3.959551 33.529668 -29.323652 34.785047 0.000014 -0.000006 3.350417 -38.923855 8.843084 -65.314408 -0.000004 0.000000 3.756504 -26.237446 11.072410 -44.834844 0.000004 0.000007 3.147323 0.000001 0.000000 0.000001 -0.086727 -2.345280 10.030859 -133.451296 -64.813222 127.594969 -0.000011 -0.000002 4.061094 -19.191708 -72.573547 26.597265 0.000013 -0.000003 3.248875 -19.691697 -72.573533 26.591825 0.000009 0.000005 2.639709 -0.000000 0.000001 0.000002 0.104115 -0.006763 9.502913 -138.957835 -69.737154 137.650045 -0.000016 -0.000007 4.568694 -7.005375 -73.336540 10.069908 0.000017 0.000007 3.654962 -7.506905 -73.336486 10.073962 -0.000001 -0.000001 2.741228 -0.000000 0.000002 -0.000001 0.086791 2.267451 8.921680 -163.789944 -71.656525 165.156679 0.000016 -0.000002 4.061111 8.925616 -74.755813 -12.967423 0.000009 -0.000001 3.654976 9.925651 -74.755867 -12.967683 -0.000002 0.000003 2.741245 0.000000 0.000003 -0.000001 -0.173492 4.467198 7.976952 168.404570 -73.381155 -164.010068 0.000012 0.000005 3.350398 21.352887 -70.236352 -32.750959 0.000003 -0.000005 2.842738 23.352897 -70.236358 -32.750969 0.000013 -0.000015 2.639708 -0.000000 -0.000001 0.000001 0.000012 0.000007 -0.000016 -0.000003 -0.000001 -0.000000 -0.000006 0.000009 -0.000001 -0.000001 -0.000001 -0.000000 2.625398 -0.000003 11.175220 -11.355368 83.256270 -1.183184 0.000024 0.000002 10.813638 -33.831997 11.924333 17.277652 -0.000010 -0.000006 28.724770 -35.738336 6.828214 91.407691 0.644392 0.328869 25.716152 -58.781161 -15.980390 3.315795 2.867325 -2.944307 3.959583 -32.544560 26.594170 38.430886 -0.000004 0.000017 3.350398 33.283724 -10.408536 -56.106364 -0.000010 0.000012 3.756506 22.156813 -10.832754 -38.322839 0.000003 0.000008 3.100007 0.000000 0.000001 0.000000 0.086745 -2.345272 10.030936 32.214116 86.676924 17.735845 -0.000001 0.000011 4.061113 -8.449465 61.484598 -14.989762 0.000029 0.000003 3.248864 -8.949841 61.485383 -14.990276 -0.000013 -0.000005 2.639709 -0.000000 -0.000002 -0.000001 -0.104122 -0.006764 9.502965 82.471263 83.396569 73.006806 0.000011 0.000004 4.568733 -3.036651 62.649173 -5.810355 0.000026 0.000003 3.655003 -3.537272 62.649173 -5.807089 0.000007 0.000000 2.741243 0.000001 0.000001 -0.000000 -0.086721 2.267450 8.921723 111.569344 74.436597 110.173185 -0.000026 -0.000001 4.061086 4.365395 66.663719 8.148446 0.000002 -0.000001 3.654967 5.365392 66.663746 8.148933 -0.000006 0.000005 2.741257 0.000001 -0.000002 -0.000002 0.173519 4.467205 7.977007 101.362097 66.716994 110.793912 -0.000031 0.000002 3.350389 14.091867 65.229912 24.914092 0.000004 -0.000003 2.842765 16.092265 65.230533 24.914609 -0.000008 0.000004 2.639738 0.000001 -0.000003 -0.000002 0.000001 -0.000001 0.000030 -0.000000 -0.000000 0.000001 0.000002 -0.000000 -0.000002 0.000002 -0.000002 0.000000 -11.289949 0.000011 -0.000002 -9.078714 8.603832 12.920121 0.000005 -0.000002 -38.200317 -1.107133 0.320471 16.141496 -0.000000 -0.000002 -39.900852 -11.835869 -4.036865 17.039761 0.000002 -15.261630 -0.000004 -1.095944 0.865777 -28.167649 -0.000000 -7.370712 0.000000 0.000000 0.000001 0.000000 -0.000000 0.000004 -0.000002 -0.000000 0.000000 0.000002 0.000003 -0.000001 -0.000004 -0.000000 0.000000 0.000001 11.315659 0.000007 -0.000005 8.249398 -6.492821 18.409967 -0.000007 -0.000005 -38.200321 0.983272 -0.217114 12.451885 -0.000000 -0.000005 -39.900856 3.257142 -2.408859 9.212968 0.000002 -15.261639 0.000003 0.512357 -0.327358 -25.831483 -0.000000 -7.539987 0.000001 0.000001 -0.000001 -0.000000 0.000002 0.000000 0.000001 -0.000000 -0.000000 0.000002 0.000002 -0.000005 0.000008 0.000002 0.000000 -0.000000 
